<mxfile host="app.diagrams.net" modified="2023-02-24T09:24:16.527Z" agent="5.0 (Macintosh; Intel Mac OS X 10_15_7) AppleWebKit/605.1.15 (KHTML, like Gecko) Version/16.2 Safari/605.1.15" etag="ej73sI9Jzee-nZH0viR9" version="20.8.23" type="github">
  <diagram name="Page-1" id="NtDFv7lGtUkmornJkalE">
    <mxGraphModel dx="970" dy="507" grid="0" gridSize="10" guides="1" tooltips="1" connect="1" arrows="1" fold="1" page="1" pageScale="1" pageWidth="827" pageHeight="1169" math="0" shadow="0">
      <root>
        <mxCell id="0" />
        <mxCell id="1" parent="0" />
        <mxCell id="DgpxJV7Bac2DRCu_IJg_-9" value="Private chat interface&amp;nbsp;" style="shape=card;whiteSpace=wrap;html=1;" parent="1" vertex="1">
          <mxGeometry x="565" y="565" width="116" height="75" as="geometry" />
        </mxCell>
        <mxCell id="DgpxJV7Bac2DRCu_IJg_-66" style="edgeStyle=orthogonalEdgeStyle;rounded=0;orthogonalLoop=1;jettySize=auto;html=1;exitX=0.5;exitY=1;exitDx=0;exitDy=0;entryX=0;entryY=0.5;entryDx=0;entryDy=0;" parent="1" source="DgpxJV7Bac2DRCu_IJg_-10" target="DgpxJV7Bac2DRCu_IJg_-53" edge="1">
          <mxGeometry relative="1" as="geometry">
            <mxPoint x="170" y="600" as="targetPoint" />
            <Array as="points">
              <mxPoint x="157" y="595" />
            </Array>
          </mxGeometry>
        </mxCell>
        <mxCell id="DgpxJV7Bac2DRCu_IJg_-10" value="Browser" style="shape=partialRectangle;whiteSpace=wrap;html=1;left=0;right=0;fillColor=none;rounded=0;strokeColor=default;fontFamily=Helvetica;fontSize=12;fontColor=default;" parent="1" vertex="1">
          <mxGeometry x="122" y="557" width="70" height="25" as="geometry" />
        </mxCell>
        <mxCell id="DgpxJV7Bac2DRCu_IJg_-13" value="Chat (Database)" style="shape=partialRectangle;whiteSpace=wrap;html=1;left=0;right=0;fillColor=none;rounded=0;strokeColor=default;fontFamily=Helvetica;fontSize=12;fontColor=default;" parent="1" vertex="1">
          <mxGeometry x="260" y="465" width="115" height="25" as="geometry" />
        </mxCell>
        <mxCell id="DgpxJV7Bac2DRCu_IJg_-50" style="edgeStyle=orthogonalEdgeStyle;rounded=0;orthogonalLoop=1;jettySize=auto;html=1;exitX=1;exitY=0.75;exitDx=0;exitDy=0;entryX=0.5;entryY=1;entryDx=0;entryDy=0;" parent="1" source="DgpxJV7Bac2DRCu_IJg_-16" target="DgpxJV7Bac2DRCu_IJg_-53" edge="1">
          <mxGeometry relative="1" as="geometry">
            <mxPoint x="660" y="615" as="targetPoint" />
            <Array as="points">
              <mxPoint x="235" y="690" />
              <mxPoint x="383" y="690" />
            </Array>
          </mxGeometry>
        </mxCell>
        <mxCell id="DgpxJV7Bac2DRCu_IJg_-16" value="Private chat user input" style="rounded=0;whiteSpace=wrap;html=1;" parent="1" vertex="1">
          <mxGeometry x="115" y="660" width="120" height="60" as="geometry" />
        </mxCell>
        <mxCell id="DgpxJV7Bac2DRCu_IJg_-40" value="image, video" style="text;html=1;align=center;verticalAlign=middle;resizable=0;points=[];autosize=1;strokeColor=none;fillColor=none;" parent="1" vertex="1">
          <mxGeometry x="475" y="530" width="90" height="30" as="geometry" />
        </mxCell>
        <mxCell id="DgpxJV7Bac2DRCu_IJg_-51" value="chat id,&amp;nbsp;text, image, video" style="text;html=1;align=center;verticalAlign=middle;resizable=0;points=[];autosize=1;strokeColor=none;fillColor=none;" parent="1" vertex="1">
          <mxGeometry x="239.5" y="686" width="154" height="26" as="geometry" />
        </mxCell>
        <mxCell id="20l-zV42F88rxfjcr9J4-1" style="edgeStyle=orthogonalEdgeStyle;rounded=0;orthogonalLoop=1;jettySize=auto;html=1;exitX=0;exitY=0;exitDx=0;exitDy=0;entryX=0.5;entryY=1;entryDx=0;entryDy=0;fontSize=11;" edge="1" parent="1" source="DgpxJV7Bac2DRCu_IJg_-53" target="DgpxJV7Bac2DRCu_IJg_-13">
          <mxGeometry relative="1" as="geometry">
            <Array as="points">
              <mxPoint x="318" y="560" />
            </Array>
          </mxGeometry>
        </mxCell>
        <mxCell id="20l-zV42F88rxfjcr9J4-3" style="edgeStyle=orthogonalEdgeStyle;rounded=0;orthogonalLoop=1;jettySize=auto;html=1;exitX=1;exitY=0;exitDx=0;exitDy=0;entryX=0.75;entryY=1;entryDx=0;entryDy=0;fontSize=11;" edge="1" parent="1" source="DgpxJV7Bac2DRCu_IJg_-53" target="DgpxJV7Bac2DRCu_IJg_-57">
          <mxGeometry relative="1" as="geometry">
            <Array as="points">
              <mxPoint x="478" y="560" />
              <mxPoint x="478" y="518" />
            </Array>
          </mxGeometry>
        </mxCell>
        <mxCell id="20l-zV42F88rxfjcr9J4-6" style="edgeStyle=orthogonalEdgeStyle;rounded=0;orthogonalLoop=1;jettySize=auto;html=1;exitX=1;exitY=0.5;exitDx=0;exitDy=0;entryX=0;entryY=0;entryDx=0;entryDy=30;entryPerimeter=0;fontSize=11;" edge="1" parent="1" source="DgpxJV7Bac2DRCu_IJg_-53" target="DgpxJV7Bac2DRCu_IJg_-9">
          <mxGeometry relative="1" as="geometry" />
        </mxCell>
        <mxCell id="DgpxJV7Bac2DRCu_IJg_-53" value="Send message" style="ellipse;whiteSpace=wrap;html=1;aspect=fixed;rounded=0;strokeColor=default;fontFamily=Helvetica;fontSize=12;fontColor=default;fillColor=none;" parent="1" vertex="1">
          <mxGeometry x="332.5" y="545" width="100" height="100" as="geometry" />
        </mxCell>
        <mxCell id="20l-zV42F88rxfjcr9J4-4" style="edgeStyle=orthogonalEdgeStyle;rounded=0;orthogonalLoop=1;jettySize=auto;html=1;exitX=0.25;exitY=1;exitDx=0;exitDy=0;entryX=0.5;entryY=0;entryDx=0;entryDy=0;fontSize=11;" edge="1" parent="1" source="DgpxJV7Bac2DRCu_IJg_-57" target="DgpxJV7Bac2DRCu_IJg_-53">
          <mxGeometry relative="1" as="geometry" />
        </mxCell>
        <mxCell id="DgpxJV7Bac2DRCu_IJg_-57" value="Cloud" style="shape=partialRectangle;whiteSpace=wrap;html=1;left=0;right=0;fillColor=none;rounded=0;strokeColor=default;fontFamily=Helvetica;fontSize=12;fontColor=default;" parent="1" vertex="1">
          <mxGeometry x="425" y="465" width="70" height="25" as="geometry" />
        </mxCell>
        <mxCell id="DgpxJV7Bac2DRCu_IJg_-65" value="text, image, video" style="text;html=1;align=center;verticalAlign=middle;resizable=0;points=[];autosize=1;strokeColor=none;fillColor=none;" parent="1" vertex="1">
          <mxGeometry x="431" y="587.5" width="120" height="30" as="geometry" />
        </mxCell>
        <mxCell id="DgpxJV7Bac2DRCu_IJg_-67" value="decoded current user id" style="text;html=1;align=center;verticalAlign=middle;resizable=0;points=[];autosize=1;strokeColor=none;fillColor=none;" parent="1" vertex="1">
          <mxGeometry x="171" y="593" width="144" height="26" as="geometry" />
        </mxCell>
        <mxCell id="20l-zV42F88rxfjcr9J4-2" value="chat id,&amp;nbsp;current user id,&lt;br&gt;receiver&amp;nbsp;id, url, text" style="text;html=1;align=right;verticalAlign=middle;resizable=0;points=[];autosize=1;strokeColor=none;fillColor=none;fontSize=11;" vertex="1" parent="1">
          <mxGeometry x="185" y="499" width="130" height="38" as="geometry" />
        </mxCell>
        <mxCell id="20l-zV42F88rxfjcr9J4-5" value="url" style="text;html=1;align=center;verticalAlign=middle;resizable=0;points=[];autosize=1;strokeColor=none;fillColor=none;fontSize=11;" vertex="1" parent="1">
          <mxGeometry x="411" y="493" width="30" height="25" as="geometry" />
        </mxCell>
      </root>
    </mxGraphModel>
  </diagram>
</mxfile>
